<?xml version="1.0" encoding="UTF-8"?>
<!-- Created with Inkscape (http://www.inkscape.org/) -->
<svg width="12.841mm" height="10.833mm" version="1.1" viewBox="-2 -2 15.841 13.833" xmlns="http://www.w3.org/2000/svg">
 <g fill-rule="evenodd">
  <g>
   <path d="m8.3652 0.0053164c-2.33 0.081-4.677-0.0606-7.0018 0.0711-0.95362 0.20692-1.5266 1.2241-1.3222 2.1543 0.0431 1.9356-0.0943 3.8966 0.1708 5.8149 0.56263 2.009 2.8387 2.9602 4.7788 2.7612 1.795 0.12656 3.9186-0.20731 4.9279-1.8832 0.31339-0.35665 0.30721-0.97728 0.58163-1.2758 2.0434-0.49957 3.0641-3.2405 1.7574-4.9229-0.41016-0.63234-1.1008-1.0579-1.7774-1.2978-0.15408-0.97502-1.2084-1.4855-2.1152-1.4219zm1.7695 4.5078c-0.53062 0.17088-0.38788-0.14783 0 0z" fill="#7bb2f7"/>
   <path d="m8.3652 0.0053164c-2.33 0.081-4.677-0.0606-7.0018 0.0711-0.95362 0.20692-1.5266 1.2241-1.3222 2.1543 0.0431 1.9356-0.0943 3.8966 0.1708 5.8149 0.56263 2.009 2.8387 2.9602 4.7788 2.7612 1.795 0.12656 3.9186-0.20731 4.9279-1.8832 0.31339-0.35665 0.30721-0.97728 0.58163-1.2758 2.0434-0.49957 3.0641-3.2405 1.7574-4.9229-0.41016-0.63234-1.1008-1.0579-1.7774-1.2978-0.15408-0.97502-1.2084-1.4855-2.1152-1.4219z" fill="#7bb2f7"/>
   <path d="m1.8946 1.0832c-0.43855 0-0.79156 0.22481-0.79156 0.5043-0.0395 1.8278 0.037 3.8278 0.0325 5.5637 0 1.4336 1.3982 2.5877 3.136 2.5902 2e-3 1e-5 3e-3 3.9e-4 5e-3 3.9e-4h1.9686c2e-3 0 4e-3 -3.7e-4 6e-3 -3.9e-4 1.7378-3e-3 3.136-1.1566 3.136-2.5902-3.8e-4 -0.16118 2e-3 -0.28499 3e-3 -0.45036 0.25194 0 0.16977-3e-3 0.25194 0 1.182-4e-5 2.14-0.95432 2.1401-2.1313-3e-5 -1.1769-0.95813-2.1778-2.1401-2.1778l-0.21629 3e-3c-1e-3 -0.27025-5.8e-4 -0.54325-6e-3 -0.80762 0-0.2795-0.35265-0.5043-0.79119-0.5043zm7.7273 2.35c0.0694-3e-3 0.14068 0.0109 0.19985 0.0153 0.70343 0.0816 1.1366 0.87882 0.88047 1.5215-0.16465 0.51832-0.71618 0.77428-1.223 0.70863 7e-3 -0.73754 9e-3 -1.4812 0.0101-2.2368 0.045-6e-3 0.0916-6e-3 0.13263-9e-3z" fill="#fff"/>
   <path d="m1.8946 1.0832c-0.43855 0-0.79156 0.22481-0.79156 0.5043-0.0395 1.8278 0.037 3.8278 0.0325 5.5637 0 1.4336 1.3982 2.5877 3.136 2.5902 2e-3 1e-5 3e-3 3.9e-4 5e-3 3.9e-4h1.9686c2e-3 0 4e-3 -3.7e-4 6e-3 -3.9e-4 1.7378-3e-3 3.136-1.1566 3.136-2.5902-3.8e-4 -0.16118 2e-3 -0.28499 3e-3 -0.45036 0.25194 0 0.16977-3e-3 0.25194 0 1.182-4e-5 2.14-0.95432 2.1401-2.1313-3e-5 -1.1769-0.95813-2.1778-2.1401-2.1778l-0.21629 3e-3c-1e-3 -0.27025-5.8e-4 -0.54325-6e-3 -0.80762 0-0.2795-0.35265-0.5043-0.79119-0.5043zm7.7273 2.35c0.0694-3e-3 0.14068 0.0109 0.19985 0.0153 0.70343 0.0816 1.1366 0.87882 0.88047 1.5215-0.16465 0.51832-0.71618 0.77428-1.223 0.70863 7e-3 -0.73754 9e-3 -1.4812 0.0101-2.2368 0.045-6e-3 0.0916-6e-3 0.13263-9e-3z" fill="#fff"/>
   <path d="m2.6158 1.9743c-0.34745 0-0.62714 0.17811-0.62714 0.39954-0.0313 1.4482 0.0292 3.0327 0.0257 4.408 0 1.1358 1.1078 2.0502 2.4846 2.0522 2e-3 0 3e-3 3.1e-4 4e-3 3.1e-4h3e-4 1.5594c2e-3 0 4e-3 -2.9e-4 4e-3 -3.1e-4 1.3768-3e-3 2.4846-0.91638 2.4846-2.0522-3e-3 -1.3753 0.0571-2.9598 0.0257-4.408 0-0.22143-0.27939-0.39954-0.62684-0.39954z" fill="#7bb2f7"/>
  </g>
  <g fill="#fff" stroke="#fff">
   <path d="m3.3989 4.1256 0.76122-0.54995 0.27579 0.82527c0.13418 0.40152 0.14756 0.0718 0.20505 0.24851l0.62309 1.9156c0.0575 0.17673-0.14962 0.33546-0.33546 0.33546h-1.5369c-0.18585 0-0.33546-0.14961-0.33546-0.33546v-2.0387c0-0.18585 0.19205-0.29184 0.3427-0.40067z" stroke-linejoin="round" stroke-width=".24455"/>
   <path d="m4.9303 4.1256-0.76122-0.54995-0.27579 0.82527c-0.13418 0.40152-0.14755 0.0718-0.20504 0.24851l-0.6231 1.9156c-0.0575 0.17673 0.14962 0.33546 0.33547 0.33546h1.5369c0.18584 0 0.33546-0.14961 0.33546-0.33546v-2.0387c0-0.18585-0.19207-0.29184-0.34271-0.40067z" stroke-linejoin="round" stroke-width=".24455"/>
   <path d="m4.1613 4.0105-6e-3 -2.5117" stroke-width=".47545px"/>
  </g>
 </g>
</svg>
